# xmcd CD database file
#
# Track frame offsets:
#	300
#	9137
#	26790
#	39195
#	59017
#	75915
#	90965
#	109797
#	126537
#	145812
#	163792
#	179730
#	199565
#
# Disc length: 2896 seconds
#
# Revision: 12
# Processed by: cddbd v1.5.1PL2 Copyright (c) Steve Scherf et al.
# Submitted via: CDex 1.51
#
DISCID=a50b4c0d
DTITLE=B'z - THE CIRCLE
DYEAR=2005
DGENRE=Rock
TTITLE0=THE CIRCLE
TTITLE1=X
TTITLE2=パルス
TTITLE3=愛のバクダン
TTITLE4=Fly The Flag
TTITLE5=アクアブルー
TTITLE6=睡蓮
TTITLE7=Sanctuary
TTITLE8=Fever
TTITLE9=白い火花
TTITLE10=イカロス
TTITLE11=BLACK AND WHITE
TTITLE12=Brighter Day
EXTD=YEAR: 2005
EXTT0=
EXTT1=
EXTT2=
EXTT3=
EXTT4=
EXTT5=
EXTT6=
EXTT7=
EXTT8=
EXTT9=
EXTT10=
EXTT11=
EXTT12=
PLAYORDER=
